<?xml version="1.0" standalone="no"?>
<!DOCTYPE svg PUBLIC "-//W3C//DTD SVG 20010904//EN"
 "http://www.w3.org/TR/2001/REC-SVG-20010904/DTD/svg10.dtd">
<svg version="1.0" xmlns="http://www.w3.org/2000/svg"
 width="200.000000pt" height="200.000000pt" viewBox="0 0 200.000000 200.000000"
 preserveAspectRatio="xMidYMid meet">
<metadata>
Created by potrace 1.14, written by Peter Selinger 2001-2017
</metadata>
<g transform="translate(0.000000,200.000000) scale(0.100000,-0.100000)"
fill="#000000" stroke="none">
<path d="M0 1000 l0 -1000 1000 0 1000 0 0 564 0 565 -27 3 c-22 2 -29 9 -31
31 -5 38 -39 38 -44 0 -2 -22 -9 -29 -31 -31 l-28 -3 3 93 3 93 47 3 c67 4 91
-11 86 -54 -2 -21 1 -35 9 -38 11 -4 13 69 13 384 l0 390 -1000 0 -1000 0 0
-1000z m1065 804 c14 -6 45 -53 45 -69 0 -3 -40 -5 -90 -5 -49 0 -90 4 -90 9
0 24 21 60 37 64 28 7 80 8 98 1z m-230 -64 c0 -8 -8 -16 -17 -18 -13 -2 -18
3 -18 18 0 15 5 20 18 18 9 -2 17 -10 17 -18z m400 0 c0 -8 -8 -16 -17 -18
-13 -2 -18 3 -18 18 0 15 5 20 18 18 9 -2 17 -10 17 -18z m-46 -46 c-6 -7 -15
-11 -21 -8 -5 3 -4 12 3 20 6 7 15 11 21 8 5 -3 4 -12 -3 -20z m-324 6 c3 -5
2 -10 -4 -10 -5 0 -13 5 -16 10 -3 6 -2 10 4 10 5 0 13 -4 16 -10z m245 -65
c0 -87 -1 -88 -115 -83 l-70 3 -3 78 -3 77 96 0 95 0 0 -75z m-200 30 c0 -16
-6 -25 -15 -25 -15 0 -21 31 -8 43 13 14 23 6 23 -18z m243 -11 c-9 -23 -23
-16 -23 12 0 22 2 24 14 14 8 -6 12 -18 9 -26z m-173 -129 c0 -8 -9 -15 -20
-15 -11 0 -20 7 -20 15 0 8 9 15 20 15 11 0 20 -7 20 -15z m118 3 c-7 -20 -48
-23 -48 -4 0 11 9 16 26 16 16 0 24 -5 22 -12z m-138 -48 c0 -5 -4 -10 -10
-10 -5 0 -10 5 -10 10 0 6 5 10 10 10 6 0 10 -4 10 -10z m18 -32 c21 -21 13
-28 -28 -28 -38 0 -52 14 -33 33 11 11 48 8 61 -5z m140 0 c21 -21 13 -28 -28
-28 -38 0 -52 14 -33 33 11 11 48 8 61 -5z m-938 -213 c0 -95 -7 -105 -74
-105 -45 0 -78 30 -74 68 2 21 9 28 31 30 23 3 27 0 27 -22 0 -16 6 -26 15
-26 12 0 15 14 15 63 0 71 3 77 37 77 22 0 23 -3 23 -85z m94 69 c3 -9 6 -40
6 -70 0 -41 4 -54 15 -54 11 0 15 16 17 68 3 65 4 67 31 70 l27 3 0 -85 c0
-97 -7 -106 -77 -106 -61 0 -76 17 -81 94 -2 36 -2 72 2 81 7 20 52 19 60 -1z
m260 6 c25 -9 26 -13 26 -84 0 -89 -7 -96 -94 -96 l-56 0 0 95 0 95 49 0 c27
0 61 -4 75 -10z m196 -15 c0 -22 -4 -25 -40 -25 -22 0 -40 -4 -40 -10 0 -5 14
-10 30 -10 25 0 30 -4 30 -25 0 -21 -5 -25 -30 -25 -16 0 -30 -4 -30 -10 0 -5
18 -10 40 -10 36 0 40 -2 40 -25 0 -26 -1 -26 -67 -23 l-68 3 -3 79 c-2 44 -1
85 2 93 4 9 25 13 71 13 63 0 65 -1 65 -25z m170 -60 c0 -95 -7 -105 -74 -105
-45 0 -78 30 -74 68 2 21 9 28 31 30 23 3 27 0 27 -22 0 -16 6 -26 15 -26 12
0 15 14 15 63 0 71 3 77 37 77 22 0 23 -3 23 -85z m181 64 c5 -8 9 -44 9 -81
0 -77 -10 -88 -79 -88 -59 0 -81 25 -81 95 0 76 23 99 92 93 28 -3 54 -12 59
-19z m185 -4 c4 -14 4 -51 2 -82 -6 -65 -23 -83 -78 -83 -49 0 -71 19 -73 60
-2 31 1 35 26 38 23 3 27 0 27 -22 0 -16 6 -26 15 -26 12 0 15 14 15 63 0 71
3 77 36 77 17 0 25 -7 30 -25z m158 15 c25 -9 26 -13 26 -84 0 -86 -8 -96 -79
-96 -59 0 -81 25 -81 95 0 42 5 60 20 75 22 22 72 26 114 10z m116 -25 c0 -43
12 -45 27 -5 12 32 34 46 58 36 14 -5 14 -9 0 -36 -14 -27 -14 -31 0 -36 11
-5 15 -21 15 -61 0 -53 0 -54 -27 -51 -23 2 -29 8 -31 36 -2 24 -8 32 -23 32
-15 0 -19 -7 -19 -36 0 -33 -2 -35 -27 -32 -28 3 -28 4 -31 82 -3 95 0 106 33
106 22 0 25 -4 25 -35z m268 8 c3 -21 -1 -23 -37 -23 -23 0 -41 -4 -41 -10 0
-5 14 -10 30 -10 25 0 30 -4 30 -25 0 -21 -5 -25 -30 -25 -16 0 -30 -4 -30
-10 0 -5 18 -10 40 -10 36 0 40 -2 40 -25 0 -26 -1 -26 -67 -23 l-68 3 -3 79
c-2 44 -1 85 2 93 4 10 22 13 68 11 57 -3 63 -5 66 -25z m-778 -264 c-14 -49
-14 -51 26 -43 l37 7 -29 -52 c-16 -28 -39 -64 -51 -79 l-22 -27 9 35 c16 56
13 63 -20 58 -16 -3 -30 -3 -30 -1 0 16 80 147 86 141 2 -2 -1 -20 -6 -39z
m-570 -44 c0 -18 -5 -25 -20 -25 -25 0 -26 18 -2 36 23 18 22 18 22 -11z m26
-23 c-12 -11 -18 7 -10 30 l8 23 4 -23 c2 -13 1 -26 -2 -30z m192 30 c-10 -2
-18 -8 -18 -13 0 -14 26 -11 40 6 10 12 16 13 27 4 10 -9 18 -8 33 6 24 22 30
18 23 -16 -5 -26 -16 -31 -40 -16 -6 4 -14 4 -16 0 -3 -5 -20 -8 -39 -7 -23 1
-34 6 -36 19 -4 20 17 37 33 27 6 -4 3 -8 -7 -10z m-322 -15 c1 -14 -4 -24
-12 -24 -8 0 -14 10 -14 24 0 30 25 30 26 0z m53 -2 c0 -11 -3 -14 -6 -7 -4
10 -8 10 -19 1 -11 -9 -14 -7 -14 9 0 15 6 20 20 19 13 -1 20 -8 19 -22z m121
6 c0 -23 -16 -36 -25 -21 -9 14 1 40 15 40 5 0 10 -9 10 -19z m43 0 c-4 -17
14 -13 21 4 8 22 26 18 26 -5 0 -21 -1 -21 -47 -23 -26 -1 -36 14 -25 36 6 12
27 1 25 -12z m257 8 c0 -5 -6 -7 -12 -3 -10 6 -10 5 -1 -8 15 -17 7 -29 -13
-21 -17 6 -18 30 -1 36 20 9 27 8 27 -4z m478 -14 c0 -18 -6 -25 -19 -25 -11
0 -19 5 -19 10 0 6 5 10 10 10 6 0 10 5 10 11 0 5 -5 7 -12 3 -7 -4 -8 -3 -4
4 13 21 34 13 34 -13z m49 9 c8 -21 -13 -42 -28 -27 -13 13 -5 43 11 43 6 0
13 -7 17 -16z m53 -3 c0 -11 -5 -23 -11 -27 -15 -9 -33 12 -26 30 9 23 37 20
37 -3z m50 0 c0 -11 -5 -23 -11 -27 -15 -9 -33 12 -26 30 9 23 37 20 37 -3z"/>
<path d="M971 1781 c-17 -11 -7 -41 13 -41 22 0 30 20 15 36 -9 8 -19 10 -28
5z"/>
<path d="M1043 1783 c-21 -8 -15 -43 6 -43 11 0 23 5 27 11 8 14 -17 38 -33
32z"/>
<path d="M960 1680 c0 -5 7 -10 15 -10 8 0 15 5 15 10 0 6 -7 10 -15 10 -8 0
-15 -4 -15 -10z"/>
<path d="M1050 1680 c0 -5 7 -10 15 -10 8 0 15 5 15 10 0 6 -7 10 -15 10 -8 0
-15 -4 -15 -10z"/>
<path d="M960 1615 c0 -31 3 -35 25 -35 14 0 25 5 25 10 0 6 -9 10 -20 10 -11
0 -20 7 -20 15 0 11 12 15 45 15 33 0 45 -4 45 -15 0 -8 -7 -15 -15 -15 -8 0
-15 -5 -15 -11 0 -6 10 -9 23 -7 17 2 22 10 22 33 0 30 -1 30 -57 33 l-58 3 0
-36z"/>
<path d="M470 1225 c0 -33 4 -45 15 -45 11 0 15 12 15 45 0 33 -4 45 -15 45
-11 0 -15 -12 -15 -45z"/>
<path d="M997 1263 c-4 -3 -7 -24 -7 -45 0 -31 3 -38 20 -38 17 0 20 7 20 45
0 43 -14 58 -33 38z"/>
<path d="M1357 1263 c-4 -3 -7 -24 -7 -45 0 -31 3 -38 20 -38 17 0 20 7 20 45
0 43 -14 58 -33 38z"/>
<path d="M435 980 c-3 -5 -1 -10 4 -10 6 0 11 5 11 10 0 6 -2 10 -4 10 -3 0
-8 -4 -11 -10z"/>
<path d="M711 974 c0 -11 3 -14 6 -6 3 7 2 16 -1 19 -3 4 -6 -2 -5 -13z"/>
<path d="M1330 969 c0 -5 5 -7 10 -4 6 3 10 8 10 11 0 2 -4 4 -10 4 -5 0 -10
-5 -10 -11z"/>
<path d="M1380 969 c0 -5 5 -7 10 -4 6 3 10 8 10 11 0 2 -4 4 -10 4 -5 0 -10
-5 -10 -11z"/>
<path d="M1435 981 c-3 -5 -1 -12 5 -16 5 -3 10 1 10 9 0 18 -6 21 -15 7z"/>
<path d="M1900 1255 c0 -8 7 -15 15 -15 8 0 15 7 15 15 0 8 -7 15 -15 15 -8 0
-15 -7 -15 -15z"/>
</g>
</svg>
